<?xml version="1.0" encoding="UTF-8"?>
<svg width="32px" height="32px" viewBox="0 0 32 32" version="1.1" xmlns="http://www.w3.org/2000/svg" xmlns:xlink="http://www.w3.org/1999/xlink">
    <!-- Generator: sketchtool 44.1 (41455) - http://www.bohemiancoding.com/sketch -->
    <title>EAD522D5-A069-4460-B7CA-B8B6D6891F9B</title>
    <desc>Created with sketchtool.</desc>
    <defs></defs>
    <g id="Symbols" stroke="none" stroke-width="1" fill="none" fill-rule="evenodd">
        <g id="Atoms" transform="translate(-432.000000, -616.000000)"></g>
        <g id="Atoms/Icons/Chat" fill-rule="nonzero" fill="#4C4C4E">
            <path d="M6.4,6.4 L25.6,6.4 L25.6,20.8 L7.804,20.8 L6.4,22.204 L6.4,6.4 L6.4,6.4 Z M6.4,4 C5.08,4 4.012,5.08 4.012,6.4 L4,28 L8.8,23.2 L25.6,23.2 C26.92,23.2 28,22.12 28,20.8 L28,6.4 C28,5.08 26.92,4 25.6,4 L6.4,4 Z M8.8,16 L18.4,16 L18.4,18.4 L8.8,18.4 L8.8,16 Z M8.8,12.4 L23.2,12.4 L23.2,14.8 L8.8,14.8 L8.8,12.4 Z M8.8,8.8 L23.2,8.8 L23.2,11.2 L8.8,11.2 L8.8,8.8 Z" id="Shape"></path>
        </g>
    </g>
</svg>