<?xml version="1.0" encoding="UTF-8"?>
<svg width="56px" height="56px" viewBox="0 0 56 56" version="1.1" xmlns="http://www.w3.org/2000/svg" xmlns:xlink="http://www.w3.org/1999/xlink">
    <!-- Generator: sketchtool 44.1 (41455) - http://www.bohemiancoding.com/sketch -->
    <title>46359B86-4182-433C-88DE-A1D3C4819909</title>
    <desc>Created with sketchtool.</desc>
    <defs></defs>
    <g id="Symbols" stroke="none" stroke-width="1" fill="none" fill-rule="evenodd">
        <g id="Atoms" transform="translate(-283.000000, -806.000000)"></g>
        <g id="Atoms/Icons/custom-2" stroke="#FFFFFF" stroke-width="0.5" fill-rule="nonzero">
            <g id="compare-grades" transform="translate(0.000000, 8.000000)">
                <path d="M22.9720615,5.42539487 C21.9505564,6.33738548 21.0273177,7.35379513 20.2174359,8.45801026 C19.8022084,9.01978864 19.9210114,9.81180838 20.4827898,10.2270359 C21.0445681,10.6422634 21.8365879,10.5234604 22.2518154,9.96168205 C22.958116,9.00032221 23.7627406,8.11523506 24.6526359,7.32077949 C25.0170651,7.02832906 25.1903557,6.55863818 25.1031944,6.09957525 C25.0160331,5.64051231 24.6826496,5.26702255 24.2363917,5.12849553 C23.7901337,4.98996852 23.3038561,5.10901976 22.9720615,5.43803077 L22.9720615,5.42539487 Z" id="Shape" fill="#4C4C4E"></path>
                <path d="M26.9144615,5.40012308 C27.1358126,5.40165181 27.3536817,5.34500586 27.5462564,5.23585641 C28.5794948,4.64284174 29.6721801,4.16002732 30.8063179,3.7953641 C31.2640265,3.68155274 31.6202519,3.32230238 31.730189,2.8636479 C31.8401261,2.40499342 31.6854734,1.9232882 31.329097,1.6143449 C30.9727206,1.3054016 30.4739474,1.22065079 30.0355282,1.39454359 C28.7164115,1.80924843 27.4455591,2.36418731 26.244759,3.04984615 C25.7441087,3.33354494 25.4983716,3.91967733 25.647012,4.47559252 C25.7956524,5.03150771 26.301124,5.41678214 26.8765538,5.41275897 L26.9144615,5.40012308 Z" id="Shape" fill="#4C4C4E"></path>
                <path d="M16.4266667,20.0451282 C16.4256501,21.3780211 16.5611398,22.707514 16.8310154,24.0128 C16.9529185,24.6106336 17.4845936,25.0359737 18.0946051,25.0236718 L18.3473231,25.0236718 C18.675779,24.9567084 18.9641669,24.7619766 19.1490141,24.482336 C19.3338613,24.2026954 19.4000178,23.861065 19.3329231,23.5326359 C19.0821298,22.3571428 18.9550785,21.1586253 18.9538462,19.9566769 C18.9538462,19.2588156 18.3881178,18.6930872 17.6902564,18.6930872 L17.6902564,18.6930872 C17.3392281,18.692226 17.0036611,18.8374257 16.7639766,19.0938882 C16.5242921,19.3503506 16.4020936,19.69496 16.4266667,20.0451282 L16.4266667,20.0451282 Z" id="Shape" fill="#4C4C4E"></path>
                <path d="M18.107241,17.4168615 C18.7133759,17.4303486 19.243661,17.0114235 19.3708308,16.4186256 C19.6228369,15.2542556 19.9955027,14.1193187 20.4827897,13.0322051 C20.70193,12.6163596 20.6721278,12.1132417 20.4054271,11.7261749 C20.1387263,11.3391081 19.6792126,11.1320745 19.2125878,11.1887418 C18.7459629,11.2454091 18.3493598,11.5564104 18.1830564,11.9960615 C17.6281604,13.2460651 17.2046887,14.5503579 16.9194667,15.8879179 C16.8483025,16.216408 16.9109444,16.5597148 17.0935367,16.8419028 C17.276129,17.1240908 17.5636238,17.3219045 17.8924308,17.3915897 L18.107241,17.4168615 Z" id="Shape" fill="#4C4C4E"></path>
                <path d="M51.617641,13.1712 C52.0982351,14.2629118 52.4624745,15.4022187 52.7043282,16.5702564 C52.8262313,17.1680901 53.3579064,17.5934301 53.9679179,17.5811282 L54.2206359,17.5811282 C54.5490918,17.5141648 54.8374797,17.3194331 55.0223269,17.0397924 C55.2071741,16.7601518 55.2733307,16.4185214 55.2062359,16.0900923 C54.9235664,14.7477676 54.5000242,13.4390223 53.9426462,12.1856 C53.6600123,11.5470569 52.9132508,11.2585354 52.2747077,11.5411692 C51.6361646,11.8238031 51.3476431,12.5705646 51.6302769,13.2091077 L51.617641,13.1712 Z" id="Shape" fill="#4C4C4E"></path>
                <path d="M34.2938256,3.07511795 C35.4784145,2.95209572 36.6725598,2.95209572 37.8571487,3.07511795 L37.9961436,3.07511795 C38.6940049,3.11350031 39.2908484,2.57888698 39.3292308,1.88102564 C39.3676131,1.1831643 38.8329998,0.586320846 38.1351385,0.547938462 C36.7740626,0.407735409 35.4021836,0.407735409 34.0411077,0.547938462 C33.6962407,0.566877761 33.3741573,0.726159263 33.1497761,0.988733022 C32.9253949,1.25130678 32.818275,1.59428447 32.8533333,1.93788718 C32.8844288,2.28363653 33.0563994,2.60136489 33.3288674,2.8164712 C33.6013354,3.03157752 33.9502999,3.12511371 34.2938256,3.07511795 Z" id="Shape" fill="#4C4C4E"></path>
                <path d="M48.7492923,8.71072821 C49.1386866,9.146643 49.5056038,9.60212648 49.8486154,10.0754051 C50.1045395,10.4621806 50.5517801,10.6776737 51.0137563,10.6368027 C51.4757325,10.5959317 51.8781932,10.3052656 52.0622377,9.8795661 C52.2462822,9.45386662 52.1823299,8.96155418 51.8956308,8.59700513 C51.5165538,8.06629744 51.0869333,7.53558974 50.632041,7.03015385 C50.1744146,6.49974513 49.6893769,5.99361878 49.1789128,5.51384615 C48.6624954,5.04278978 47.8619898,5.07956214 47.3909334,5.59597952 C46.919877,6.1123969 46.9566493,6.91290256 47.4730667,7.38395897 C47.922273,7.8026913 48.348314,8.24560512 48.7492923,8.71072821 L48.7492923,8.71072821 Z" id="Shape" fill="#4C4C4E"></path>
                <path d="M41.3446564,3.84590769 C42.4797093,4.21889444 43.5724025,4.71018286 44.6047179,5.31167179 C45.2047341,5.62554967 45.9455209,5.41064083 46.2843992,4.82438136 C46.6232775,4.23812188 46.4397694,3.48893851 45.8683077,3.12566154 C44.6677889,2.43282525 43.3970701,1.86947326 42.0775385,1.44508718 C41.6433258,1.28518487 41.15644,1.37540743 40.8083515,1.68027437 C40.4602631,1.98514131 40.3066514,2.45588681 40.4079251,2.90738771 C40.5091988,3.3588886 40.8491583,3.71892386 41.2941128,3.84590769 L41.3446564,3.84590769 Z" id="Shape" fill="#4C4C4E"></path>
                <path d="M27.3946256,34.7785846 C26.3674076,34.1773353 25.4060391,33.4700731 24.5262769,32.6683897 C23.9993916,32.1973333 23.1904,32.2425916 22.7193436,32.7694769 C22.2482872,33.2963622 22.2935455,34.1053538 22.8204308,34.5764103 C23.8313245,35.4989004 24.9367725,36.3121035 26.1184,37.0025026 C26.7184161,37.3163804 27.459203,37.1014716 27.7980813,36.5152121 C28.1369596,35.9289527 27.9534515,35.1797693 27.3819897,34.8164923 L27.3946256,34.7785846 Z" id="Shape" fill="#4C4C4E"></path>
                <path d="M53.2350359,26.4136205 C52.5999389,26.1289283 51.8542009,26.4114048 51.5670974,27.0454154 C51.079229,28.1334477 50.4777929,29.1669013 49.7728,30.1285744 C49.4717506,30.4898109 49.3961977,30.9883395 49.5766949,31.4225553 C49.7571921,31.8567711 50.1638789,32.1548397 50.6322911,32.1962221 C51.1007034,32.2376046 51.5533496,32.0154549 51.8071795,31.6196103 C52.6158302,30.5157035 53.3061754,29.3298345 53.8668308,28.081559 C54.151523,27.446462 53.8690464,26.700724 53.2350359,26.4136205 Z" id="Shape" fill="#4C4C4E"></path>
                <path d="M34.1169231,37.0025026 C32.9313315,36.8710609 31.7625737,36.6169831 30.6294154,36.2443487 C30.1952027,36.0844464 29.7083169,36.174669 29.3602285,36.4795359 C29.01214,36.7844028 28.8585283,37.2551484 28.959802,37.7066492 C29.0610757,38.1581501 29.4010352,38.5181854 29.8459897,38.6451692 C31.143381,39.0725744 32.4814703,39.3647521 33.8389333,39.5170462 L33.9779282,39.5170462 C34.6757896,39.5554285 35.272633,39.0208152 35.3110154,38.3229538 C35.3493978,37.6250925 34.8147844,37.028249 34.1169231,36.9898667 L34.1169231,37.0025026 Z" id="Shape" fill="#4C4C4E"></path>
                <path d="M47.3467077,32.7947487 C46.4569757,33.5880597 45.4872297,34.286785 44.4530872,34.8796718 C43.8459478,35.2286025 43.6366283,36.0036504 43.985559,36.6107897 C44.3344896,37.2179291 45.1095376,37.4272486 45.7166769,37.0783179 C46.9188078,36.38937 48.0453548,35.5762234 49.0778256,34.6522256 L48.2438564,33.7045333 L49.0904615,34.6395897 C49.5937357,34.1691711 49.6274581,33.3823166 49.1662769,32.8705641 C48.9385742,32.6132652 48.6159126,32.459785 48.2726246,32.4454814 C47.9293366,32.4311777 47.5950255,32.557284 47.3467077,32.7947487 Z" id="Shape" fill="#4C4C4E"></path>
                <path d="M54.334359,18.8573538 L54.334359,18.8573538 C53.6364976,18.8573538 53.0707692,19.4230822 53.0707692,20.1209436 C53.067871,21.3144485 52.9408283,22.5044146 52.6916923,23.6716308 C52.6205282,24.0001208 52.6831701,24.3434276 52.8657623,24.6256156 C53.0483546,24.9078037 53.3358495,25.1056174 53.6646564,25.1753026 L53.9300103,25.1753026 C54.5361452,25.1887897 55.0664302,24.7698645 55.1936,24.1770667 C55.46837,22.8426592 55.6038791,21.4833336 55.5979487,20.1209436 C55.5979487,19.4230822 55.0322203,18.8573538 54.334359,18.8573538 Z" id="Shape" fill="#4C4C4E"></path>
                <path d="M41.1803897,36.3075282 C40.0462697,36.6688959 38.8773711,36.9102989 37.6928821,37.0277744 C36.9950207,37.0626674 36.4575787,37.6566822 36.4924718,38.3545436 C36.5273649,39.0524049 37.1213797,39.5898469 37.819241,39.5549538 L37.9076923,39.5549538 C39.2679824,39.4223271 40.6105567,39.1470358 41.9132718,38.7336205 C42.5797294,38.5207728 42.9474528,37.807955 42.7346051,37.1414974 C42.5217574,36.4750399 41.8089396,36.1073164 41.1424821,36.3201641 L41.1803897,36.3075282 Z" id="Shape" fill="#4C4C4E"></path>
                <path d="M20.1037128,31.4806154 C20.3596369,31.8673909 20.8068775,32.0828839 21.2688537,32.0420129 C21.7308299,32.0011419 22.1332906,31.7104758 22.3173351,31.2847764 C22.5013796,30.8590769 22.4374274,30.3667644 22.1507282,30.0022154 C21.4537408,29.0354201 20.8607788,27.9977365 20.3817026,26.9064205 C20.0804693,26.3057253 19.3617714,26.0458833 18.7460418,26.3150547 C18.1303122,26.5842262 17.8329712,27.2882381 18.0693333,27.9172923 C18.6206607,29.1731037 19.3025378,30.3674475 20.1037128,31.4806154 L20.1037128,31.4806154 Z" id="Shape" fill="#4C4C4E"></path>
                <path d="M21.3546667,37.0151385 C20.7668855,37.0747677 20.1764387,37.10429 19.585641,37.1035897 C13.142016,37.0964876 7.25227876,33.4591426 4.36040978,27.7008922 C1.4685408,21.9426419 2.0681125,15.0462807 5.91032913,9.87349376 C9.75254576,4.70070679 16.1816335,2.13436418 22.5298051,3.23938462 C22.9812423,3.31612893 23.43933,3.14620475 23.7315111,2.79362088 C24.0236922,2.44103701 24.1055774,1.95935932 23.9463213,1.53003114 C23.7870653,1.10070296 23.4108628,0.788949441 22.9594256,0.712205128 C15.7106721,-0.459964401 8.41522703,2.5209337 4.06142876,8.43387285 C-0.292369517,14.346812 -0.973002571,22.1983094 2.29832847,28.7722581 C5.56965952,35.3462069 12.2433107,39.5380623 19.585641,39.6307692 C20.2650474,39.6317768 20.9440607,39.598037 21.6200205,39.5296821 C22.0714576,39.4822812 22.4633147,39.1976421 22.6479829,38.7829856 C22.8326511,38.3683291 22.7820749,37.8866514 22.5153059,37.5193959 C22.248537,37.1521403 21.8061038,36.9551017 21.3546667,37.0025026 L21.3546667,37.0151385 Z" id="Shape" fill="#4C4C4E"></path>
                <path d="M31.9309128,8.28110769 C35.0517904,11.5581962 36.7426107,15.9410829 36.6312282,20.4651054 C36.5198458,24.989128 34.6153896,29.2834981 31.3370256,32.4030359 C30.8310762,32.8845602 30.8112757,33.6850659 31.2928,34.1910154 C31.7743243,34.6969649 32.57483,34.7167654 33.0807795,34.235241 C36.8456015,30.6535277 39.0327413,25.7224944 39.1607159,20.5276722 C39.2886906,15.33285 37.3470089,10.300103 33.7631179,6.53735385 C33.2815936,6.03140437 32.4810879,6.01160388 31.9751385,6.49312821 C31.469189,6.97465253 31.4493885,7.77515822 31.9309128,8.28110769 L31.9309128,8.28110769 Z" id="Shape" fill="#4C4C4E"></path>
                <path d="M25.5371487,15.2561231 L29.9597128,10.833559 C30.3890513,10.3322168 30.3601852,9.58488695 29.8934542,9.11815601 C29.4267233,8.65142507 28.6793935,8.62255896 28.1780513,9.05189744 L23.7554872,13.4744615 C23.3948888,13.7832701 23.2378173,14.2681455 23.3488512,14.7297356 C23.4598851,15.1913256 23.8202846,15.5517251 24.2818747,15.6627591 C24.7434648,15.773793 25.2283402,15.6167215 25.5371487,15.2561231 L25.5371487,15.2561231 Z" id="Shape" fill="#FAA519"></path>
                <path d="M32.4868923,23.7853538 C31.994045,23.2954303 31.1980781,23.2954303 30.7052308,23.7853538 L26.2700308,28.2584615 C25.9094324,28.5672701 25.7523609,29.0521455 25.8633948,29.5137356 C25.9744287,29.9753256 26.3348282,30.3357251 26.7964183,30.4467591 C27.2580083,30.557793 27.7428838,30.4007215 28.0516923,30.0401231 L32.4742564,25.617559 C32.7270238,25.3807371 32.8714929,25.0505361 32.8738817,24.7041689 C32.8762704,24.3578017 32.7363693,24.0256394 32.4868923,23.7853538 Z" id="Shape" fill="#FAA519"></path>
                <path d="M23.1110564,24.1012513 C23.6039037,24.5911748 24.3998706,24.5911748 24.8927179,24.1012513 L32.8533333,16.2038154 C33.1828824,15.8742663 33.311586,15.393938 33.1909627,14.9437655 C33.0703393,14.4935931 32.7187146,14.1419684 32.2685422,14.021345 C31.8183697,13.9007217 31.3380414,14.0294253 31.0084923,14.3589744 L23.1110564,22.2564103 C22.8558741,22.4953194 22.7110635,22.8292659 22.7110635,23.1788308 C22.7110635,23.5283956 22.8558741,23.8623422 23.1110564,24.1012513 Z" id="Shape" fill="#FAA519"></path>
            </g>
        </g>
    </g>
</svg>