<?xml version="1.0" encoding="UTF-8"?>
<svg width="56px" height="56px" viewBox="0 0 56 56" version="1.1" xmlns="http://www.w3.org/2000/svg" xmlns:xlink="http://www.w3.org/1999/xlink">
    <!-- Generator: sketchtool 44.1 (41455) - http://www.bohemiancoding.com/sketch -->
    <title>E6C5A998-A388-4083-A29C-1355563CADAC</title>
    <desc>Created with sketchtool.</desc>
    <defs></defs>
    <g id="Symbols" stroke="none" stroke-width="1" fill="none" fill-rule="evenodd">
        <g id="Atoms" transform="translate(-357.000000, -806.000000)"></g>
        <g id="Atoms/Icons/custom-3" fill-rule="nonzero">
            <g id="negotiate">
                <g id="Group">
                    <path d="M29.9223881,41.8707692 C30.1731343,41.4553846 30.3402985,41.04 30.3402985,40.5415385 L30.841791,40.8738462 C31.2597015,41.2061538 31.761194,41.2892308 32.2626866,41.2892308 C32.4298507,41.2892308 32.5970149,41.2892308 32.7641791,41.2061538 C33.4328358,41.04 34.0179104,40.7076923 34.4358209,40.1261538 C34.6865672,39.7107692 34.8537313,39.2953846 34.8537313,38.7969231 C35.2716418,39.1292308 35.7731343,39.2123077 36.2746269,39.2123077 C36.441791,39.2123077 36.6089552,39.2123077 36.7761194,39.1292308 C37.4447761,39.0461538 38.0298507,38.6307692 38.4477612,38.0492308 C38.6985075,37.6338462 38.8656716,37.2184615 38.8656716,36.72 L39.0328358,36.8030769 C39.4507463,37.1353846 39.9522388,37.2184615 40.4537313,37.2184615 C40.6208955,37.2184615 40.7880597,37.2184615 40.9552239,37.1353846 C41.6238806,37.0523077 42.2089552,36.6369231 42.6268657,36.0553846 C43.0447761,35.4738462 43.1283582,34.8092308 43.0447761,34.1446154 C42.8776119,33.48 42.5432836,32.8984615 41.958209,32.4830769 L33.8507463,27 L32.2626866,27 C29.7552239,27 29.4208955,25.0892308 29.3373134,24.9230769 L29.2537313,24.3415385 L23.5701493,24.3415385 L23.4865672,24.84 C23.2358209,26.0861538 22.8179104,26.9169231 22.2328358,27.3323077 C21.8985075,27.4984615 21.5641791,27.5815385 21.3134328,27.5815385 L21.3134328,24.0923077 L25.4089552,21.7661538 L26.0776119,21.7661538 L36.7761194,21.7661538 C36.8597015,21.9323077 36.8597015,22.0153846 36.9432836,22.1815385 L42.8776119,30.8215385 C43.1283582,31.1538462 43.5462687,31.4030769 43.9641791,31.4861538 C44.0477612,31.4861538 44.1313433,31.4861538 44.2149254,31.4861538 C44.7164179,31.4861538 45.2179104,31.32 45.6358209,30.9876923 C47.3074627,29.6584615 49.0626866,28.4123077 50.8179104,27.2492308 L50.1492537,26.2523077 C48.3940299,27.4153846 46.638806,28.7446154 44.8835821,29.9907692 C44.6328358,30.1569231 44.3820896,30.24 44.1313433,30.24 C43.9641791,30.24 43.880597,30.1569231 43.880597,30.0738462 L37.9462687,21.4338462 C37.9462687,21.4338462 37.8626866,21.3507692 37.8626866,21.1846154 C37.9462687,20.9353846 38.1134328,20.7692308 38.3641791,20.6030769 C39.6179104,19.8553846 40.8716418,19.0246154 42.1253731,18.1938462 L41.4567164,17.1138462 C40.2029851,17.9446154 38.9492537,18.6923077 37.7791045,19.44 C37.361194,19.6892308 37.0268657,20.0215385 36.8597015,20.4369231 L26.161194,20.4369231 L25.158209,20.4369231 L19.0567164,20.4369231 C18.8895522,20.0215385 18.5552239,19.6892308 18.1373134,19.44 C16.8835821,18.6923077 15.6298507,17.8615385 14.4597015,17.1138462 L13.7910448,18.1938462 C15.0447761,19.0246154 16.2985075,19.7723077 17.5522388,20.6030769 C17.8029851,20.7692308 17.9701493,21.0184615 18.0537313,21.1846154 C18.0537313,21.3507692 18.0537313,21.4338462 17.9701493,21.4338462 L12.0358209,30.0738462 C12.0358209,30.0738462 11.9522388,30.1569231 11.7850746,30.24 C11.5343284,30.24 11.2835821,30.1569231 11.0328358,29.9907692 C9.27761194,28.6615385 7.52238806,27.4153846 5.76716418,26.2523077 L5.09850746,27.2492308 C6.85373134,28.4123077 8.60895522,29.6584615 10.280597,30.9876923 C10.6985075,31.32 11.2,31.4861538 11.7014925,31.4861538 C11.7850746,31.4861538 11.8686567,31.4861538 11.9522388,31.4861538 C12.3701493,31.4030769 12.7880597,31.1538462 13.038806,30.8215385 L13.3731343,30.7384615 C13.7074627,31.0707692 14.2089552,31.5692308 14.4597015,31.9846154 C14.5432836,32.1507692 14.6268657,32.3169231 14.7104478,32.4 C14.7104478,32.4830769 14.7104478,32.4830769 14.7940299,32.5661538 C14.6268657,32.7323077 14.3761194,32.8984615 14.2925373,33.0646154 C13.8746269,33.5630769 13.7074627,34.2276923 13.8746269,34.8923077 C13.958209,35.5569231 14.2925373,36.0553846 14.7940299,36.4707692 L14.8776119,36.5538462 C15.2955224,36.8861538 15.7970149,37.0523077 16.2985075,37.0523077 C16.3820896,37.0523077 16.5492537,37.0523077 16.6328358,37.0523077 C16.6328358,37.1353846 16.6328358,37.2184615 16.6328358,37.3015385 C16.7164179,37.9661538 17.0507463,38.5476923 17.6358209,38.88 C18.0537313,39.2123077 18.5552239,39.3784615 19.1402985,39.3784615 C19.3074627,39.3784615 19.4746269,39.3784615 19.641791,39.2953846 C19.641791,39.3784615 19.641791,39.3784615 19.641791,39.4615385 C19.7253731,40.1261538 20.0597015,40.7076923 20.6447761,41.04 C21.0626866,41.3723077 21.5641791,41.5384615 22.1492537,41.5384615 C22.3164179,41.5384615 22.5671642,41.5384615 22.7343284,41.4553846 C22.7343284,41.4553846 22.7343284,41.4553846 22.7343284,41.4553846 C22.8179104,42.0369231 23.1522388,42.5353846 23.6537313,42.9507692 C24.0716418,43.2 24.4895522,43.3661538 24.9910448,43.3661538 C25.6597015,43.3661538 26.2447761,43.1169231 26.6626866,42.6184615 C27.080597,42.8676923 27.4985075,42.9507692 28,42.9507692 C28.6686567,42.9507692 29.4208955,42.6184615 29.9223881,41.8707692 Z M15.5462687,35.5569231 L15.4626866,35.4738462 C15.2119403,35.3076923 15.0447761,35.0584615 14.961194,34.7261538 C14.8776119,34.3938462 14.961194,34.1446154 15.2119403,33.8953846 C15.4626866,33.5630769 15.7970149,33.3969231 16.1313433,33.3969231 C16.3820896,33.3969231 16.6328358,33.48 16.8,33.6461538 L16.8835821,33.7292308 C17.1343284,33.8953846 17.3014925,34.1446154 17.3850746,34.4769231 C17.3850746,34.7261538 17.3850746,34.9753846 17.2179104,35.1415385 L16.9671642,35.3907692 C16.6328358,35.8061538 15.9641791,35.8892308 15.5462687,35.5569231 Z M18.3044776,37.8830769 C18.0537313,37.7169231 17.8865672,37.3846154 17.8029851,37.0523077 C17.719403,36.72 17.8029851,36.4707692 17.9701493,36.2215385 C18.0537313,36.1384615 18.0537313,36.1384615 18.1373134,36.0553846 C18.2208955,35.9723077 18.3044776,35.8892308 18.3044776,35.7230769 L18.8059701,35.0584615 C19.0567164,34.7261538 19.3910448,34.56 19.8089552,34.56 C20.0597015,34.56 20.3104478,34.6430769 20.561194,34.8092308 C21.1462687,35.2246154 21.2298507,35.9723077 20.8119403,36.5538462 L19.9761194,37.6338462 C19.641791,38.1323077 18.8059701,38.2153846 18.3044776,37.8830769 Z M21.3134328,40.0430769 C21.0626866,39.8769231 20.8955224,39.5446154 20.8119403,39.2123077 C20.7283582,38.88 20.8119403,38.5476923 21.0626866,38.2984615 L22.5671642,36.2215385 C22.8179104,35.8892308 23.1522388,35.7230769 23.5701493,35.7230769 C23.8208955,35.7230769 24.0716418,35.8061538 24.3223881,35.9723077 C24.5731343,36.1384615 24.7402985,36.4707692 24.8238806,36.8030769 C24.9074627,37.1353846 24.8238806,37.4676923 24.5731343,37.7169231 L23.0686567,39.7938462 C22.6507463,40.2923077 21.8149254,40.4584615 21.3134328,40.0430769 Z M25.8268657,41.4553846 L25.5761194,41.7046154 C25.241791,42.12 24.6567164,42.2030769 24.1552239,41.8707692 C23.9044776,41.7046154 23.8208955,41.4553846 23.7373134,41.2061538 C23.7373134,40.9569231 23.7373134,40.7076923 23.9044776,40.4584615 L24.1552239,40.2092308 C24.3223881,39.96 24.6567164,39.7938462 24.9910448,39.7938462 C25.241791,39.7938462 25.4089552,39.8769231 25.5761194,39.96 C25.8268657,40.1261538 25.9104478,40.3753846 25.9940299,40.6246154 C26.0776119,40.9569231 25.9940299,41.2061538 25.8268657,41.4553846 Z M27.1641791,41.5384615 C27.2477612,41.2061538 27.3313433,40.8738462 27.2477612,40.5415385 C27.1641791,39.96 26.8298507,39.4615385 26.3283582,39.0461538 C25.9940299,38.7969231 25.6597015,38.7138462 25.3253731,38.6307692 L25.4925373,38.4646154 C25.9104478,37.9661538 26.0776119,37.3015385 25.9104478,36.6369231 C25.8268657,35.9723077 25.4925373,35.3907692 24.9074627,35.0584615 C24.0716418,34.4769231 22.9014925,34.4769231 22.0656716,34.9753846 C21.8985075,34.56 21.6477612,34.1446154 21.2298507,33.8123077 C20.3940299,33.2307692 19.2238806,33.2307692 18.3880597,33.7292308 C18.2208955,33.3138462 17.9701493,32.8984615 17.5522388,32.6492308 L17.5522388,32.5661538 C17.0507463,32.2338462 16.4656716,32.0676923 15.880597,32.1507692 C15.880597,32.0676923 15.7970149,31.9846154 15.7970149,31.9015385 C15.7134328,31.7353846 15.6298507,31.5692308 15.5462687,31.4030769 C15.2119403,30.7384615 14.5432836,30.0738462 14.1253731,29.6584615 L18.9731343,22.5969231 C19.0567164,22.5138462 19.1402985,22.3476923 19.1402985,22.1815385 L22.9014925,22.1815385 L20.0597015,23.76 L20.0597015,29.0769231 L20.4776119,29.2430769 C20.561194,29.2430769 21.6477612,29.5753846 22.8179104,28.9107692 C23.6537313,28.4123077 24.3223881,27.4153846 24.5731343,26.0861538 L28.1671642,26.0861538 C28.5014925,27.2492308 29.6716418,28.7446154 32.1791045,28.7446154 L33.3492537,28.7446154 L41.1223881,33.9784615 C41.3731343,34.1446154 41.6238806,34.4769231 41.7074627,34.8092308 C41.7910448,35.1415385 41.7074627,35.4738462 41.4567164,35.8061538 C41.038806,36.3876923 40.2029851,36.5538462 39.6179104,36.1384615 L37.6119403,34.8092308 L37.6119403,34.8092308 L32.0119403,30.9876923 L31.3432836,31.9846154 L36.9432836,35.8061538 C37.5283582,36.2215385 37.6955224,37.0523077 37.2776119,37.6338462 C37.1104478,37.8830769 36.7761194,38.1323077 36.441791,38.2153846 C36.1074627,38.2984615 35.7731343,38.2153846 35.438806,37.9661538 L29.838806,34.1446154 L29.7552239,34.2276923 L29.7552239,34.2276923 L29.2537313,35.2246154 L33.0985075,37.7169231 C33.3492537,37.8830769 33.6,38.2153846 33.6835821,38.5476923 C33.7671642,38.88 33.6835821,39.2123077 33.4328358,39.5446154 C33.2656716,39.7938462 32.9313433,40.0430769 32.5970149,40.1261538 C32.2626866,40.2092308 31.9283582,40.1261538 31.5940299,39.96 L28,37.3846154 L27.2477612,38.3815385 L28.5850746,39.2953846 L28.5850746,39.2953846 C28.8358209,39.4615385 29.0865672,39.7938462 29.1701493,40.1261538 C29.2537313,40.4584615 29.1701493,40.7907692 29.0029851,41.1230769 C28.5014925,41.7046154 27.7492537,41.8707692 27.1641791,41.5384615 Z" id="Shape" fill="#FAA519"></path>
                    <rect id="Rectangle-path" fill="#4C4C4E" transform="translate(42.996528, 26.144453) rotate(144.963858) translate(-42.996528, -26.144453) " x="42.3696551" y="25.5213686" width="1.25374654" height="1.24616896"></rect>
                    <rect id="Rectangle-path" fill="#4C4C4E" transform="translate(44.401071, 28.224786) rotate(54.992491) translate(-44.401071, -28.224786) " x="43.7741877" y="27.6016919" width="1.25376676" height="1.24618905"></rect>
                    <rect id="Rectangle-path" fill="#4C4C4E" transform="translate(12.978288, 25.949604) rotate(34.870912) translate(-12.978288, -25.949604) " x="12.351455" y="25.3265596" width="1.25366681" height="1.2460897"></rect>
                    <rect id="Rectangle-path" fill="#4C4C4E" transform="translate(11.561965, 27.977479) rotate(-145.129088) translate(-11.561965, -27.977479) " x="10.9351314" y="27.3544341" width="1.25366681" height="1.2460897"></rect>
                    <rect id="Rectangle-path" fill="#4C4C4E" x="29.6716418" y="0.249230769" width="1.25373134" height="1.24615385"></rect>
                    <rect id="Rectangle-path" fill="#4C4C4E" x="32.7641791" y="0.249230769" width="1.25373134" height="1.24615385"></rect>
                    <rect id="Rectangle-path" fill="#4C4C4E" x="35.8567164" y="0.249230769" width="1.25373134" height="1.24615385"></rect>
                    <rect id="Rectangle-path" fill="#4C4C4E" x="38.9492537" y="0.249230769" width="1.25373134" height="1.24615385"></rect>
                    <path d="M10.4477612,40.7076923 L10.4477612,46.6061538 C5.01492537,41.7046154 1.92238806,34.7261538 1.92238806,27.4153846 C1.92238806,13.1261538 13.6238806,1.49538462 28,1.49538462 L28,0.249230769 C12.8716418,0.249230769 0.585074627,12.4615385 0.585074627,27.4153846 C0.585074627,34.9753846 3.76119403,42.2030769 9.27761194,47.2707692 L3.67761194,47.2707692 L3.67761194,48.5169231 L11.6179104,48.5169231 L11.6179104,40.6246154 L10.4477612,40.6246154 L10.4477612,40.7076923 Z" id="Shape" fill="#4C4C4E"></path>
                    <path d="M46.638806,6.72923077 L52.238806,6.72923077 L52.238806,5.48307692 L44.2985075,5.48307692 L44.2985075,13.3753846 L45.5522388,13.3753846 L45.5522388,7.47692308 C50.9850746,12.2953846 54.161194,19.2738462 54.161194,26.5846154 C54.161194,40.8738462 42.4597015,52.5046154 28.0835821,52.5046154 L28.0835821,53.7507692 C43.1283582,53.7507692 55.4149254,41.5384615 55.4149254,26.5846154 C55.4149254,19.0246154 52.238806,11.7969231 46.638806,6.72923077 Z" id="Shape" fill="#4C4C4E"></path>
                    <rect id="Rectangle-path" fill="#4C4C4E" x="25.0746269" y="52.5046154" width="1.25373134" height="1.24615385"></rect>
                    <rect id="Rectangle-path" fill="#4C4C4E" x="21.9820896" y="52.5046154" width="1.25373134" height="1.24615385"></rect>
                    <rect id="Rectangle-path" fill="#4C4C4E" x="18.8895522" y="52.5046154" width="1.25373134" height="1.24615385"></rect>
                    <rect id="Rectangle-path" fill="#4C4C4E" x="15.7970149" y="52.5046154" width="1.25373134" height="1.24615385"></rect>
                </g>
            </g>
        </g>
    </g>
</svg>