<?xml version="1.0" encoding="UTF-8"?>
<svg width="56px" height="56px" viewBox="0 0 56 56" version="1.1" xmlns="http://www.w3.org/2000/svg" xmlns:xlink="http://www.w3.org/1999/xlink">
    <!-- Generator: sketchtool 44.1 (41455) - http://www.bohemiancoding.com/sketch -->
    <title>A2D016CF-9AAF-4F0E-B6BC-DA7BFCCEE61B</title>
    <desc>Created with sketchtool.</desc>
    <defs></defs>
    <g id="Symbols" stroke="none" stroke-width="1" fill="none" fill-rule="evenodd">
        <g id="Atoms" transform="translate(-496.000000, -806.000000)"></g>
        <g id="Atoms/Icons/custom-5" fill-rule="nonzero">
            <g id="return-cancel" transform="translate(0.000000, 1.000000)">
                <g id="Group">
                    <path d="M6.01791045,32.1666667 L8.10746269,30 L8.10746269,38 C8.10746269,38.5 8.44179104,38.8333333 8.94328358,38.8333333 C9.44477612,38.8333333 9.77910448,38.5 9.77910448,38 L9.77910448,30 L11.8686567,32.1666667 C12.2029851,32.5 12.7044776,32.5 13.038806,32.1666667 C13.3731343,31.8333333 13.3731343,31.3333333 13.038806,31 L9.52835821,27.4166667 C9.52835821,27.4166667 9.52835821,27.4166667 9.52835821,27.4166667 C9.36119403,27.25 9.19402985,27.1666667 8.94328358,27.1666667 C8.69253731,27.1666667 8.52537313,27.25 8.35820896,27.4166667 C8.35820896,27.4166667 8.35820896,27.4166667 8.35820896,27.4166667 L4.84776119,31 C4.51343284,31.3333333 4.51343284,31.8333333 4.84776119,32.1666667 C5.18208955,32.5 5.68358209,32.4166667 6.01791045,32.1666667 Z" id="Shape" fill="#4C4C4E"></path>
                    <path d="M20.3940299,27.3333333 C20.3940299,27.3333333 20.3940299,27.3333333 20.3940299,27.3333333 C20.2268657,27.1666667 20.0597015,27.0833333 19.8089552,27.0833333 C19.558209,27.0833333 19.3910448,27.1666667 19.2238806,27.3333333 C19.2238806,27.3333333 19.2238806,27.3333333 19.2238806,27.3333333 L15.7134328,30.9166667 C15.3791045,31.25 15.3791045,31.75 15.7134328,32.0833333 C16.0477612,32.4166667 16.5492537,32.4166667 16.8835821,32.0833333 L18.9731343,29.9166667 L18.9731343,37.9166667 C18.9731343,38.4166667 19.3074627,38.75 19.8089552,38.75 C20.3104478,38.75 20.6447761,38.4166667 20.6447761,37.9166667 L20.6447761,30 L22.7343284,32.1666667 C23.0686567,32.5 23.5701493,32.5 23.9044776,32.1666667 C24.238806,31.8333333 24.238806,31.3333333 23.9044776,31 L20.3940299,27.3333333 Z" id="Shape" fill="#4C4C4E"></path>
                    <path d="M22.8179104,39.5833333 L6.01791045,39.5833333 C5.51641791,39.5833333 5.18208955,39.9166667 5.18208955,40.4166667 C5.18208955,40.9166667 5.51641791,41.25 6.01791045,41.25 L22.8179104,41.25 C23.319403,41.25 23.6537313,40.9166667 23.6537313,40.4166667 C23.6537313,39.9166667 23.2358209,39.5833333 22.8179104,39.5833333 Z" id="Shape" fill="#4C4C4E"></path>
                    <path d="M50.0656716,27.4166667 L50.0656716,18.0833333 C50.0656716,17.8333333 50.0656716,17.5833333 49.9820896,17.3333333 C50.0656716,17.1666667 50.0656716,16.9166667 49.9820896,16.75 L45.3850746,2.33333333 C45.0507463,1 43.7134328,0 42.2925373,0 C42.2925373,0 42.2925373,0 42.2925373,0 C33.3492537,0 17.3850746,0.0833333333 8.52537313,0.166666667 C7.10447761,0.166666667 5.76716418,1.16666667 5.43283582,2.5 L0.835820896,16.75 C0.752238806,16.9166667 0.835820896,17.1666667 0.835820896,17.3333333 C0.835820896,17.5833333 0.835820896,17.8333333 0.835820896,18.0833333 L0.835820896,41.6666667 C0.835820896,43.5833333 2.4238806,45.1666667 4.34626866,45.1666667 L26.0776119,45.1666667 C28.3343284,50.9166667 33.9343284,55 40.4537313,55 C49.0626866,55 56,48.0833333 56,39.5 C56,34.6666667 53.6597015,30.25 50.0656716,27.4166667 Z M42.2089552,1.66666667 C42.2089552,1.66666667 42.2089552,1.66666667 42.2089552,1.66666667 C42.8776119,1.66666667 43.5462687,2.16666667 43.7134328,2.83333333 L47.3910448,14.1666667 C46.8895522,13.9166667 46.3044776,13.8333333 45.719403,13.8333333 L31.4268657,13.8333333 L31.0089552,1.75 L42.2089552,1.66666667 Z M30.0895522,23.4166667 C30.0895522,23.9166667 29.5880597,24.4166667 28.919403,24.4166667 L22.0656716,24.4166667 C21.3970149,24.4166667 20.8955224,24 20.8955224,23.5 L21.2298507,15.5 L29.9223881,15.5 L30.0895522,23.4166667 Z M21.1462687,13.75 L21.5641791,1.75 C26.2447761,1.75 24.6567164,1.75 29.2537313,1.75 L29.6716418,13.8333333 L21.1462687,13.8333333 L21.1462687,13.75 Z M7.02089552,2.91666667 C7.1880597,2.33333333 7.85671642,1.83333333 8.52537313,1.83333333 L19.9761194,1.75 L19.558209,13.75 L5.09850746,13.75 C4.51343284,13.75 3.92835821,13.8333333 3.42686567,14.0833333 L7.02089552,2.91666667 Z M4.34626866,43.5 C3.34328358,43.5 2.50746269,42.6666667 2.50746269,41.6666667 L2.50746269,18.0833333 C2.50746269,16.6666667 3.67761194,15.5 5.09850746,15.5 L19.3910448,15.5 L19.0567164,23.4166667 C19.0567164,24.9166667 20.3104478,26.0833333 21.8985075,26.0833333 L28.7522388,26.0833333 C30.3402985,26.0833333 31.5940299,24.9166667 31.5940299,23.4166667 L31.2597015,15.5 L45.5522388,15.5 C46.9731343,15.5 48.1432836,16.6666667 48.1432836,18.0833333 L48.1432836,26.3333333 C45.8029851,24.9166667 43.1283582,24.1666667 40.2029851,24.1666667 C31.6776119,24.1666667 24.6567164,31.0833333 24.6567164,39.6666667 C24.6567164,41 24.8238806,42.3333333 25.158209,43.5833333 L4.34626866,43.5833333 L4.34626866,43.5 Z M40.4537313,53.3333333 C32.8477612,53.3333333 26.5791045,47.1666667 26.5791045,39.5 C26.5791045,31.8333333 32.7641791,25.6666667 40.4537313,25.6666667 C48.1432836,25.6666667 54.3283582,31.9166667 54.3283582,39.5 C54.3283582,47.0833333 48.1432836,53.3333333 40.4537313,53.3333333 Z" id="Shape" fill="#4C4C4E"></path>
                    <path d="M42.6268657,33.1666667 L40.119403,33.1666667 L40.119403,29.25 C40.119403,28.9166667 39.9522388,28.6666667 39.7014925,28.5 C39.4507463,28.3333333 39.1164179,28.4166667 38.8656716,28.5833333 L28.7522388,35.9166667 C28.5014925,36.0833333 28.4179104,36.3333333 28.4179104,36.6666667 C28.4179104,36.9166667 28.5850746,37.1666667 28.7522388,37.3333333 L38.8656716,44.6666667 C39.1164179,44.8333333 39.4507463,44.9166667 39.7014925,44.75 C39.9522388,44.5833333 40.119403,44.3333333 40.119403,44 L40.119403,40.1666667 L40.7880597,40.1666667 C43.5462687,40.1666667 45.8029851,42.1666667 45.9701493,44.6666667 C46.0537313,46.4166667 45.3014925,48.0833333 43.7970149,49.0833333 C43.4626866,49.3333333 43.3791045,49.75 43.4626866,50.0833333 C43.6298507,50.4166667 43.880597,50.5833333 44.2149254,50.5833333 C44.2985075,50.5833333 44.2985075,50.5833333 44.3820896,50.5833333 C48.8119403,49.9166667 51.9880597,46 51.8208955,41.5833333 C51.6537313,37 47.558209,33.1666667 42.6268657,33.1666667 Z M47.0567164,47.8333333 C47.558209,46.8333333 47.7253731,45.75 47.641791,44.5833333 C47.3910448,41.1666667 44.3820896,38.5 40.7880597,38.5 L39.2835821,38.5 C38.7820896,38.5 38.4477612,38.8333333 38.4477612,39.3333333 L38.4477612,42.3333333 L30.6746269,36.6666667 L38.5313433,31 L38.5313433,34.0833333 C38.5313433,34.5833333 38.8656716,34.9166667 39.3671642,34.9166667 L42.7104478,34.9166667 C46.7223881,34.9166667 50.0656716,38 50.2328358,41.75 C50.2328358,44.1666667 49.0626866,46.5 47.0567164,47.8333333 Z" id="Shape" fill="#FAA519"></path>
                </g>
            </g>
        </g>
    </g>
</svg>