<?xml version="1.0" encoding="UTF-8"?>
<svg width="58px" height="58px" viewBox="0 0 58 58" version="1.1" xmlns="http://www.w3.org/2000/svg" xmlns:xlink="http://www.w3.org/1999/xlink">
    <!-- Generator: sketchtool 44.1 (41455) - http://www.bohemiancoding.com/sketch -->
    <title>FEA6C0C8-84A4-40D0-ABB7-4416369F7C4C</title>
    <desc>Created with sketchtool.</desc>
    <defs></defs>
    <g id="Symbols" stroke="none" stroke-width="1" fill="none" fill-rule="evenodd">
        <g id="Organism/Icon_Banner" transform="translate(-951.000000, -15.000000)">
            <g id="Atoms/Icons/custom-6" transform="translate(952.000000, 16.000000)">
                <g id="Help-know-more">
                    <g id="Group-18"></g>
                    <path d="M28,0.147800587 C43.3581232,0.147800587 55.8521994,12.6418768 55.8521994,28 C55.8521994,43.3581232 43.3581232,55.8521994 28,55.8521994 C12.6418768,55.8521994 0.147800587,43.3581232 0.147800587,28 C0.147800587,12.6418768 12.6418768,0.147800587 28,0.147800587 Z M28,52.6991202 C41.6213021,52.6991202 52.6991202,41.6213021 52.6991202,28 C52.6991202,14.3813255 41.6186745,3.30087977 28,3.30087977 C14.3813255,3.30087977 3.30087977,14.3813255 3.30087977,28 C3.30087977,41.6186745 14.3786979,52.6991202 28,52.6991202 Z" id="Combined-Shape" stroke="#FFFFFF" fill="#4C4C4E"></path>
                    <path d="M36.1454545,21.2944516 C36.1454545,25.2962346 33.3181935,28.6069677 29.5765396,29.3426862 L29.5765396,33.1736774 C29.5765396,34.0434018 28.8697243,34.750217 28,34.750217 C27.1302757,34.750217 26.4234604,34.0434018 26.4234604,33.1736774 L26.4234604,27.921173 C26.4234604,27.0488211 27.1302757,26.3446334 28,26.3446334 C30.7536891,26.3446334 32.9923754,24.1059472 32.9923754,21.3522581 C32.9923754,18.54339 30.7510616,16.3047038 28,16.3047038 C25.2489384,16.3047038 23.0076246,18.54339 23.0076246,21.2970792 C23.0076246,22.1694311 22.3008094,22.8998944 21.431085,22.8998944 C20.5613607,22.8998944 19.8545455,22.2219824 19.8545455,21.3496305 C19.8545455,16.8039413 23.5094897,13.1489971 28,13.1489971 C32.4905103,13.1489971 36.1454545,16.8039413 36.1454545,21.2944516 Z" id="Path" stroke="#FFFFFF" fill="#FAA519"></path>
                    <path d="M30.2041056,39.1046804 C30.2041056,40.2686921 29.263437,41.2093607 28.1020528,41.2093607 C26.9406686,41.2093607 26,40.2660645 26,39.1046804 C26,37.9432962 26.9406686,37 28.1020528,37 C29.263437,37 30.2041056,37.9432962 30.2041056,39.1046804 Z" id="Path" stroke="#FFFFFF" fill="#FAA519"></path>
                </g>
            </g>
        </g>
    </g>
</svg>