<?xml version="1.0" encoding="UTF-8"?>
<svg width="56px" height="56px" viewBox="0 0 56 56" version="1.1" xmlns="http://www.w3.org/2000/svg" xmlns:xlink="http://www.w3.org/1999/xlink">
    <!-- Generator: sketchtool 44.1 (41455) - http://www.bohemiancoding.com/sketch -->
    <title>24EA8729-CF59-49A8-9A2E-B87A10751776</title>
    <desc>Created with sketchtool.</desc>
    <defs></defs>
    <g id="Symbols" stroke="none" stroke-width="1" fill="none" fill-rule="evenodd">
        <g id="Organism/Icon_Banner" transform="translate(-272.000000, -16.000000)">
            <g id="Atoms/Icons/custom-1" transform="translate(272.000000, 16.000000)">
                <g id="place-an-order">
                    <path d="M40.2029851,52.5212121 C39.7014925,52.5212121 39.3671642,52.8606061 39.3671642,53.369697 L39.3671642,54.3030303 L1.67164179,54.3030303 L1.67164179,10.6060606 L10.1970149,10.6060606 C9.94626866,11.5393939 9.77910448,12.5575758 9.77910448,13.830303 C9.77910448,14.3393939 10.1134328,14.6787879 10.6149254,14.6787879 L30.5074627,14.6787879 C31.0089552,14.6787879 31.3432836,14.3393939 31.3432836,13.830303 C31.3432836,12.6424242 31.1761194,11.6242424 30.9253731,10.6060606 L39.4507463,10.6060606 L39.4507463,16.4606061 C39.4507463,16.969697 39.7850746,17.3090909 40.2865672,17.3090909 C40.7880597,17.3090909 41.1223881,16.969697 41.1223881,16.4606061 L41.1223881,9.75757576 C41.1223881,9.24848485 40.7880597,8.90909091 40.2865672,8.90909091 L30.2567164,8.90909091 C29.4208955,7.38181818 28.1671642,6.19393939 26.4119403,5.34545455 C26.2447761,2.20606061 23.5701493,0 20.561194,0 C17.5522388,0 14.8776119,2.29090909 14.7104478,5.34545455 C13.2895522,6.02424242 11.8686567,7.04242424 10.8656716,8.90909091 L0.835820896,8.90909091 C0.334328358,8.90909091 0,9.24848485 0,9.75757576 L0,55.1515152 C0,55.6606061 0.334328358,56 0.835820896,56 L40.2029851,56 C40.7044776,56 41.038806,55.6606061 41.038806,55.1515152 L41.038806,53.369697 C41.038806,52.9454545 40.6208955,52.5212121 40.2029851,52.5212121 Z M15.7970149,6.7030303 C16.1313433,6.53333333 16.3820896,6.19393939 16.2985075,5.85454545 C16.1313433,3.47878788 18.1373134,1.61212121 20.4776119,1.61212121 C22.8179104,1.61212121 24.7402985,3.39393939 24.6567164,5.85454545 C24.6567164,6.19393939 24.8238806,6.53333333 25.158209,6.7030303 C27.8328358,7.80606061 29.3373134,9.84242424 29.5044776,12.9818182 L11.4507463,12.9818182 C11.7014925,9.92727273 13.1223881,7.80606061 15.7970149,6.7030303 Z" id="Shape" fill="#4C4C4E" fill-rule="nonzero"></path>
                    <path d="M20.4776119,9.92727273 C22.2328358,9.92727273 23.7373134,8.48484848 23.7373134,6.61818182 C23.7373134,4.83636364 22.3164179,3.30909091 20.4776119,3.30909091 C18.7223881,3.30909091 17.2179104,4.75151515 17.2179104,6.61818182 C17.3014925,8.4 18.7223881,9.92727273 20.4776119,9.92727273 Z M20.4776119,5.00606061 C21.3134328,5.00606061 22.0656716,5.68484848 22.0656716,6.61818182 C22.0656716,7.55151515 21.3970149,8.23030303 20.4776119,8.23030303 C19.641791,8.23030303 18.8895522,7.55151515 18.8895522,6.61818182 C18.8895522,5.68484848 19.641791,5.00606061 20.4776119,5.00606061 Z" id="Shape" fill="#4C4C4E" fill-rule="nonzero"></path>
                    <path d="M12.2865672,19.769697 C12.2865672,19.2606061 11.9522388,18.9212121 11.4507463,18.9212121 L5.76716418,18.9212121 C5.26567164,18.9212121 4.93134328,19.2606061 4.93134328,19.769697 L4.93134328,25.9636364 C4.93134328,26.4727273 5.26567164,26.8121212 5.76716418,26.8121212 L11.4507463,26.8121212 C11.9522388,26.8121212 12.2865672,26.4727273 12.2865672,25.9636364 L12.2865672,19.769697 Z M10.6149254,25.030303 L6.60298507,25.030303 L6.60298507,20.5333333 L10.6149254,20.5333333 L10.6149254,25.030303 Z" id="Shape" fill="#4C4C4E" fill-rule="nonzero"></path>
                    <path d="M12.2865672,31.1393939 C12.2865672,30.630303 11.9522388,30.2909091 11.4507463,30.2909091 L5.76716418,30.2909091 C5.26567164,30.2909091 4.93134328,30.630303 4.93134328,31.1393939 L4.93134328,37.3333333 C4.93134328,37.8424242 5.26567164,38.1818182 5.76716418,38.1818182 L11.4507463,38.1818182 C11.9522388,38.1818182 12.2865672,37.8424242 12.2865672,37.3333333 L12.2865672,31.1393939 Z M10.6149254,36.4848485 L6.60298507,36.4848485 L6.60298507,31.9878788 L10.6149254,31.9878788 L10.6149254,36.4848485 Z" id="Shape" fill="#4C4C4E" fill-rule="nonzero"></path>
                    <path d="M11.4507463,41.6606061 L5.76716418,41.6606061 C5.26567164,41.6606061 4.93134328,42 4.93134328,42.5090909 L4.93134328,48.7030303 C4.93134328,49.2121212 5.26567164,49.5515152 5.76716418,49.5515152 L11.4507463,49.5515152 C11.9522388,49.5515152 12.2865672,49.2121212 12.2865672,48.7030303 L12.2865672,42.5090909 C12.2865672,42 11.8686567,41.6606061 11.4507463,41.6606061 Z M10.6149254,47.8545455 L6.60298507,47.8545455 L6.60298507,43.3575758 L10.6149254,43.3575758 L10.6149254,47.8545455 Z" id="Shape" fill="#4C4C4E" fill-rule="nonzero"></path>
                    <path d="M54.6626866,27.1515152 L39.5343284,18.7515152 C39.2835821,18.5818182 38.9492537,18.5818182 38.7820896,18.7515152 C35.9402985,20.2787879 26.4955224,25.369697 23.6537313,26.9818182 C23.4029851,27.1515152 23.2358209,27.4060606 23.2358209,27.7454545 C23.2358209,27.7454545 23.2358209,27.7454545 23.2358209,27.7454545 C23.2358209,27.7454545 23.2358209,27.7454545 23.2358209,27.7454545 L23.2358209,36.4848485 C18.8059701,36.569697 15.2955224,40.2181818 15.2955224,44.7151515 C15.2955224,49.2121212 18.8895522,52.9454545 23.4029851,52.9454545 C27.1641791,52.9454545 30.3402985,50.3151515 31.1761194,46.8363636 L38.7820896,51.7575758 C38.7820896,51.7575758 38.7820896,51.7575758 38.7820896,51.7575758 C39.0328358,51.9272727 39.2835821,51.9272727 39.6179104,51.7575758 C39.6179104,51.7575758 39.6179104,51.7575758 39.6179104,51.7575758 L39.6179104,51.7575758 C39.6179104,51.7575758 39.6179104,51.7575758 39.6179104,51.7575758 C39.6179104,51.7575758 39.6179104,51.7575758 39.6179104,51.7575758 L54.8298507,43.5272727 C55.080597,43.3575758 55.2477612,43.1030303 55.2477612,42.7636364 L55.2477612,27.9151515 C55.1641791,27.5757576 54.9134328,27.2363636 54.6626866,27.1515152 Z M39.1164179,20.4484848 L52.6567164,27.9151515 L49.1462687,29.8666667 L35.6059701,22.3151515 L39.1164179,20.4484848 Z M45.8029851,32.1575758 L31.761194,24.4363636 L33.7671642,23.3333333 L48.2268657,31.3939394 L48.2268657,35.5515152 L46.2208955,36.6545455 L46.2208955,32.9212121 C46.2208955,32.5818182 46.0537313,32.2424242 45.8029851,32.1575758 Z M30.0059701,25.369697 L43.6298507,32.9212121 L39.1164179,35.4666667 L25.6597015,27.7454545 L30.0059701,25.369697 Z M23.2358209,51.1636364 C19.7253731,51.1636364 16.8,48.2787879 16.8,44.630303 C16.8,40.9818182 19.641791,38.0969697 23.2358209,38.0969697 C26.8298507,38.0969697 29.6716418,40.9818182 29.6716418,44.630303 C29.6716418,48.2787879 26.7462687,51.1636364 23.2358209,51.1636364 Z M31.2597015,44.8848485 C31.3432836,40.7272727 28.5014925,37.3333333 24.7402985,36.6545455 L24.7402985,29.1030303 L38.1970149,36.8242424 L38.1970149,49.2969697 L31.2597015,44.8848485 Z M39.9522388,49.4666667 L39.9522388,36.9090909 L44.5492537,34.3636364 L44.5492537,38.0969697 C44.5492537,38.4363636 44.7164179,38.6909091 44.9671642,38.8606061 C45.1343284,38.9454545 45.2179104,38.9454545 45.3850746,38.9454545 C45.5522388,38.9454545 45.6358209,38.9454545 45.8029851,38.8606061 L49.480597,36.8242424 C49.7313433,36.6545455 49.8985075,36.4 49.8985075,36.0606061 L49.8985075,31.3939394 L53.4925373,29.4424242 L53.4925373,42.2545455 L39.9522388,49.4666667 Z" id="Shape" fill="#FAA519" fill-rule="nonzero"></path>
                    <path d="M27.4149254,22.8242424 C27.4149254,22.3151515 27.080597,21.9757576 26.5791045,21.9757576 L14.6268657,21.9757576 C14.1253731,21.9757576 13.7910448,22.3151515 13.7910448,22.8242424 C13.7910448,23.3333333 14.1253731,23.6727273 14.6268657,23.6727273 L26.5791045,23.6727273 C26.9970149,23.6727273 27.4149254,23.3333333 27.4149254,22.8242424 Z" id="Shape" fill="#4C4C4E" fill-rule="nonzero"></path>
                    <path d="M14.5432836,33.430303 C14.041791,33.430303 13.7074627,33.769697 13.7074627,34.2787879 C13.7074627,34.7878788 14.041791,35.1272727 14.5432836,35.1272727 L21.480597,35.1272727 C21.9820896,35.1272727 22.3164179,34.7878788 22.3164179,34.2787879 C22.3164179,33.769697 21.9820896,33.430303 21.480597,33.430303 L14.5432836,33.430303 Z" id="Shape" fill="#4C4C4E" fill-rule="nonzero"></path>
                    <path d="M27.8328358,41.6606061 C27.4985075,41.3212121 26.9970149,41.3212121 26.6626866,41.5757576 L21.480597,46.4121212 L19.8089552,44.0363636 C19.558209,43.6121212 19.0567164,43.5272727 18.638806,43.8666667 C18.2208955,44.1212121 18.1373134,44.630303 18.4716418,45.0545455 L20.6447761,48.2787879 C20.8119403,48.4484848 20.9791045,48.6181818 21.2298507,48.6181818 C21.2298507,48.6181818 21.3134328,48.6181818 21.3134328,48.6181818 C21.480597,48.6181818 21.7313433,48.5333333 21.8985075,48.3636364 L27.7492537,42.8484848 C28.1671642,42.5939394 28.1671642,42 27.8328358,41.6606061 Z" id="Shape" fill="#FAA519" fill-rule="nonzero"></path>
                </g>
            </g>
        </g>
    </g>
</svg>