<?xml version="1.0" encoding="UTF-8"?>
<svg width="56px" height="56px" viewBox="0 0 56 56" version="1.1" xmlns="http://www.w3.org/2000/svg" xmlns:xlink="http://www.w3.org/1999/xlink">
    <!-- Generator: sketchtool 44.1 (41455) - http://www.bohemiancoding.com/sketch -->
    <title>3AB691FA-3A76-4707-9568-C69C834A3C13</title>
    <desc>Created with sketchtool.</desc>
    <defs></defs>
    <g id="Symbols" stroke="none" stroke-width="1" fill="none" fill-rule="evenodd">
        <g id="Atoms" transform="translate(-424.000000, -806.000000)"></g>
        <g id="Atoms/Icons/custom-4" fill-rule="nonzero">
            <g id="Track-order" transform="translate(0.000000, 1.000000)">
                <g id="Group">
                    <path d="M22.3176471,5.64545455 C22.8117647,5.64545455 23.1411765,5.31818182 23.1411765,4.82727273 L23.1411765,0.818181818 C23.1411765,0.327272727 22.8117647,0 22.3176471,0 C21.8235294,0 21.4941176,0.327272727 21.4941176,0.818181818 L21.4941176,4.82727273 C21.4941176,5.23636364 21.8235294,5.64545455 22.3176471,5.64545455 Z" id="Shape" fill="#FAA519"></path>
                    <path d="M35,9.32727273 L38.7058824,6.54545455 C39.0352941,6.3 39.1176471,5.72727273 38.8705882,5.4 C38.6235294,5.07272727 38.0470588,4.99090909 37.7176471,5.23636364 L34.0117647,8.01818182 C33.6823529,8.26363636 33.6,8.83636364 33.8470588,9.16363636 C34.1764706,9.49090909 34.6705882,9.57272727 35,9.32727273 Z" id="Shape" fill="#FAA519"></path>
                    <path d="M9.63529412,9.32727273 C9.96470588,9.57272727 10.5411765,9.57272727 10.7882353,9.16363636 C11.0352941,8.83636364 11.0352941,8.26363636 10.6235294,8.01818182 L6.91764706,5.23636364 C6.58823529,4.90909091 6.09411765,4.99090909 5.76470588,5.31818182 C5.51764706,5.72727273 5.6,6.21818182 5.92941176,6.54545455 L9.63529412,9.32727273 Z" id="Shape" fill="#FAA519"></path>
                    <path d="M28.6588235,6.54545455 C29.0705882,6.79090909 29.5647059,6.62727273 29.8117647,6.21818182 L31.8705882,2.53636364 C32.1176471,2.12727273 31.9529412,1.63636364 31.5411765,1.39090909 C31.1294118,1.14545455 30.6352941,1.30909091 30.3882353,1.71818182 L28.3294118,5.4 C28.0823529,5.80909091 28.2470588,6.38181818 28.6588235,6.54545455 Z" id="Shape" fill="#FAA519"></path>
                    <path d="M7.16470588,13.0909091 C7.32941176,12.6818182 7.08235294,12.1909091 6.67058824,12.0272727 L1.89411765,10.4727273 C1.48235294,10.3909091 0.988235294,10.6363636 0.823529412,11.0454545 C0.658823529,11.4545455 0.905882353,11.9454545 1.31764706,12.1090909 L6.09411765,13.6636364 C6.58823529,13.7454545 7.08235294,13.5818182 7.16470588,13.0909091 Z" id="Shape" fill="#FAA519"></path>
                    <path d="M37.5529412,13.3363636 C37.7176471,13.7454545 38.1294118,13.9909091 38.6235294,13.9090909 L43.4,12.4363636 C43.8117647,12.2727273 44.0588235,11.8636364 43.9764706,11.3727273 C43.8117647,10.9636364 43.4,10.7181818 42.9058824,10.8 L38.0470588,12.2727273 C37.6352941,12.4363636 37.3882353,12.8454545 37.5529412,13.3363636 Z" id="Shape" fill="#FAA519"></path>
                    <path d="M15.0705882,6.13636364 C15.3176471,6.54545455 15.8117647,6.70909091 16.2235294,6.46363636 C16.6352941,6.21818182 16.8,5.72727273 16.5529412,5.31818182 L14.5764706,1.63636364 C14.3294118,1.22727273 13.8352941,1.06363636 13.4235294,1.30909091 C13.0941176,1.55454545 12.9294118,2.04545455 13.1764706,2.45454545 L15.0705882,6.13636364 Z" id="Shape" fill="#FAA519"></path>
                    <path d="M22.3176471,26.8363636 C31.7058824,26.8363636 39.1176471,18.9 39.4470588,18.5727273 C39.7764706,18.2454545 39.7764706,17.7545455 39.4470588,17.4272727 C39.1176471,17.1 31.7058824,9.16363636 22.3176471,9.16363636 C12.9294118,9.16363636 5.51764706,17.1 5.18823529,17.4272727 C4.85882353,17.7545455 4.85882353,18.2454545 5.18823529,18.5727273 C5.35294118,18.7363636 6.83529412,20.2909091 9.22352941,22.0090909 L9.22352941,24.8727273 C9.22352941,25.3636364 9.55294118,25.6909091 10.0470588,25.6909091 C10.5411765,25.6909091 10.8705882,25.3636364 10.8705882,24.8727273 L10.8705882,23.1545455 C13.8352941,25.0363636 17.8705882,26.8363636 22.3176471,26.8363636 Z M22.3176471,10.8818182 C26.2705882,10.8818182 29.5647059,14.0727273 29.5647059,18.0818182 C29.5647059,22.0909091 26.3529412,25.2818182 22.3176471,25.2818182 C18.3647059,25.2818182 15.0705882,22.0909091 15.0705882,18.0818182 C15.0705882,14.0727273 18.2823529,10.8818182 22.3176471,10.8818182 Z M28.9882353,23.8090909 C30.3058824,22.2545455 31.1294118,20.2909091 31.1294118,18.0818182 C31.1294118,15.8727273 30.3058824,13.9090909 28.9882353,12.3545455 C33.1882353,14.0727273 36.4,16.9363636 37.6352941,18.0818182 C36.4823529,19.2272727 33.1882353,22.0090909 28.9882353,23.8090909 Z M15.5647059,12.2727273 C14.2470588,13.8272727 13.4235294,15.7909091 13.4235294,18 C13.4235294,20.2090909 14.2470588,22.1727273 15.5647059,23.7272727 C11.3647059,22.0090909 8.15294118,19.1454545 6.91764706,18 C8.15294118,16.8545455 11.3647059,13.9909091 15.5647059,12.2727273 Z" id="Shape" fill="#FAA519"></path>
                    <path d="M22.3176471,23.1545455 C25.1176471,23.1545455 27.4235294,20.8636364 27.4235294,18.0818182 C27.4235294,15.3 25.1176471,13.0090909 22.3176471,13.0090909 C19.5176471,13.0090909 17.2117647,15.3 17.2117647,18.0818182 C17.2117647,20.8636364 19.5176471,23.1545455 22.3176471,23.1545455 Z M22.3176471,14.5636364 C24.2117647,14.5636364 25.7764706,16.1181818 25.7764706,18 C25.7764706,19.8818182 24.2117647,21.4363636 22.3176471,21.4363636 C20.4235294,21.4363636 18.8588235,19.8818182 18.8588235,18 C18.8588235,16.1181818 20.4235294,14.5636364 22.3176471,14.5636364 Z" id="Shape" fill="#FAA519"></path>
                    <path d="M55.0941176,33.9545455 L51.3058824,27.4090909 C50.8941176,26.7545455 50.2352941,26.3454545 49.4117647,26.3454545 L30.8,26.3454545 C30.0588235,26.3454545 29.3176471,26.7545455 28.9058824,27.4090909 L25.1176471,33.9545455 C25.0352941,34.0363636 25.0352941,34.2 25.0352941,34.3636364 C25.0352941,34.3636364 25.0352941,34.3636364 25.0352941,34.3636364 L25.0352941,50.5636364 C25.0352941,52.4454545 26.6,54 28.4941176,54 L51.8,54 C53.6941176,54 55.2588235,52.4454545 55.2588235,50.5636364 L55.2588235,34.3636364 C55.2588235,34.3636364 55.2588235,34.3636364 55.2588235,34.3636364 C55.1764706,34.2 55.0941176,34.0363636 55.0941176,33.9545455 Z M49.8235294,28.2272727 L52.9529412,33.5454545 L45.6235294,33.5454545 L43.9764706,27.9818182 L49.4117647,27.9818182 C49.5764706,27.9818182 49.7411765,28.0636364 49.8235294,28.2272727 Z M37.8823529,28.0636364 L42.2470588,28.0636364 L43.8117647,33.5454545 L36.2352941,33.5454545 L37.8823529,28.0636364 Z M36.0705882,35.1818182 L44.1411765,35.1818182 L44.1411765,38.9454545 L36.0705882,38.9454545 L36.0705882,35.1818182 Z M30.3058824,28.2272727 C30.3882353,28.0636364 30.5529412,27.9818182 30.7176471,27.9818182 L36.2352941,27.9818182 L34.5882353,33.5454545 L27.2588235,33.5454545 L30.3058824,28.2272727 Z M53.5294118,50.5636364 C53.5294118,51.5454545 52.7058824,52.3636364 51.7176471,52.3636364 L28.4117647,52.3636364 C27.4235294,52.3636364 26.6,51.5454545 26.6,50.5636364 L26.6,35.1818182 L34.3411765,35.1818182 L34.3411765,39.7636364 C34.3411765,40.2545455 34.6705882,40.5818182 35.1647059,40.5818182 L44.8823529,40.5818182 C45.3764706,40.5818182 45.7058824,40.2545455 45.7058824,39.7636364 L45.7058824,35.1818182 L53.5294118,35.1818182 L53.5294118,50.5636364 Z" id="Shape" fill="#68686A"></path>
                    <path d="M36.6470588,42.4636364 C36.6470588,42.4636364 36.6470588,42.4636364 36.6470588,42.4636364 C36.4823529,42.3 36.2352941,42.2181818 36.0705882,42.2181818 C35.8235294,42.2181818 35.6588235,42.3 35.4941176,42.4636364 C35.4941176,42.4636364 35.4941176,42.4636364 35.4941176,42.4636364 L32.8588235,45.0818182 C32.5294118,45.4090909 32.5294118,45.9 32.8588235,46.2272727 C33.1882353,46.5545455 33.6823529,46.5545455 34.0117647,46.2272727 L35.2470588,45 L35.2470588,50.4 C35.2470588,50.8909091 35.5764706,51.2181818 36.0705882,51.2181818 C36.5647059,51.2181818 36.8941176,50.8909091 36.8941176,50.4 L36.8941176,45 L38.1294118,46.2272727 C38.4588235,46.5545455 38.9529412,46.5545455 39.2823529,46.2272727 C39.6117647,45.9 39.6117647,45.4090909 39.2823529,45.0818182 L36.6470588,42.4636364 Z" id="Shape" fill="#68686A"></path>
                    <path d="M44.7176471,42.4636364 C44.7176471,42.4636364 44.7176471,42.4636364 44.7176471,42.4636364 C44.5529412,42.3 44.3882353,42.2181818 44.1411765,42.2181818 C43.8941176,42.2181818 43.7294118,42.3 43.5647059,42.4636364 C43.5647059,42.4636364 43.5647059,42.4636364 43.5647059,42.4636364 L40.9294118,45.0818182 C40.6,45.4090909 40.6,45.9 40.9294118,46.2272727 C41.2588235,46.5545455 41.7529412,46.5545455 42.0823529,46.2272727 L43.3176471,45 L43.3176471,50.4 C43.3176471,50.8909091 43.6470588,51.2181818 44.1411765,51.2181818 C44.6352941,51.2181818 44.9647059,50.8909091 44.9647059,50.4 L44.9647059,45 L46.2,46.2272727 C46.5294118,46.5545455 47.0235294,46.5545455 47.3529412,46.2272727 C47.6823529,45.9 47.6823529,45.4090909 47.3529412,45.0818182 L44.7176471,42.4636364 Z" id="Shape" fill="#68686A"></path>
                    <path d="M22.8941176,44.0181818 L19.6,44.0181818 C19.1058824,44.0181818 18.7764706,44.3454545 18.7764706,44.8363636 C18.7764706,45.3272727 19.1058824,45.6545455 19.6,45.6545455 L22.8941176,45.6545455 C23.3882353,45.6545455 23.7176471,45.3272727 23.7176471,44.8363636 C23.7176471,44.3454545 23.3058824,44.0181818 22.8941176,44.0181818 Z" id="Shape" fill="#68686A"></path>
                    <path d="M16.3058824,44.0181818 L13.0117647,44.0181818 C12.5176471,44.0181818 12.1882353,44.3454545 12.1882353,44.8363636 C12.1882353,45.3272727 12.5176471,45.6545455 13.0117647,45.6545455 L16.3058824,45.6545455 C16.8,45.6545455 17.1294118,45.3272727 17.1294118,44.8363636 C17.1294118,44.3454545 16.7176471,44.0181818 16.3058824,44.0181818 Z" id="Shape" fill="#68686A"></path>
                    <path d="M10.0470588,33.8727273 C9.55294118,33.8727273 9.22352941,34.2 9.22352941,34.6909091 L9.22352941,37.9636364 C9.22352941,38.4545455 9.55294118,38.7818182 10.0470588,38.7818182 C10.5411765,38.7818182 10.8705882,38.4545455 10.8705882,37.9636364 L10.8705882,34.6909091 C10.8705882,34.2818182 10.4588235,33.8727273 10.0470588,33.8727273 Z" id="Shape" fill="#68686A"></path>
                    <path d="M10.0470588,27.3272727 C9.55294118,27.3272727 9.22352941,27.6545455 9.22352941,28.1454545 L9.22352941,31.4181818 C9.22352941,31.9090909 9.55294118,32.2363636 10.0470588,32.2363636 C10.5411765,32.2363636 10.8705882,31.9090909 10.8705882,31.4181818 L10.8705882,28.1454545 C10.8705882,27.7363636 10.4588235,27.3272727 10.0470588,27.3272727 Z" id="Shape" fill="#68686A"></path>
                    <path d="M10.0470588,40.4181818 C9.55294118,40.4181818 9.22352941,40.7454545 9.22352941,41.2363636 L9.22352941,44.5090909 C9.22352941,45 9.55294118,45.3272727 10.0470588,45.3272727 C10.5411765,45.3272727 10.8705882,45 10.8705882,44.5090909 L10.8705882,41.2363636 C10.8705882,40.8272727 10.4588235,40.4181818 10.0470588,40.4181818 Z" id="Shape" fill="#68686A"></path>
                </g>
            </g>
        </g>
    </g>
</svg>