<?xml version="1.0" encoding="UTF-8"?>
<svg width="32px" height="32px" viewBox="0 0 32 32" version="1.1" xmlns="http://www.w3.org/2000/svg" xmlns:xlink="http://www.w3.org/1999/xlink">
    <!-- Generator: sketchtool 44.1 (41455) - http://www.bohemiancoding.com/sketch -->
    <title>7A3804B7-31CB-4F8A-9F83-523CEBF4732F</title>
    <desc>Created with sketchtool.</desc>
    <defs></defs>
    <g id="Symbols" stroke="none" stroke-width="1" fill="none" fill-rule="evenodd">
        <g id="Atoms" transform="translate(-387.000000, -616.000000)"></g>
        <g id="Atoms/Icons/ShopList" fill-rule="nonzero" fill="#4C4C4E">
            <path d="M4,17 L6.66666667,17 L6.66666667,14.3333333 L4,14.3333333 L4,17 Z M4,22.3333333 L6.66666667,22.3333333 L6.66666667,19.6666667 L4,19.6666667 L4,22.3333333 Z M4,11.6666667 L6.66666667,11.6666667 L6.66666667,9 L4,9 L4,11.6666667 Z M9.33333333,17 L28,17 L28,14.3333333 L9.33333333,14.3333333 L9.33333333,17 Z M9.33333333,22.3333333 L28,22.3333333 L28,19.6666667 L9.33333333,19.6666667 L9.33333333,22.3333333 Z M9.33333333,9 L9.33333333,11.6666667 L28,11.6666667 L28,9 L9.33333333,9 Z M4,17 L6.66666667,17 L6.66666667,14.3333333 L4,14.3333333 L4,17 Z M4,22.3333333 L6.66666667,22.3333333 L6.66666667,19.6666667 L4,19.6666667 L4,22.3333333 Z M4,11.6666667 L6.66666667,11.6666667 L6.66666667,9 L4,9 L4,11.6666667 Z M9.33333333,17 L28,17 L28,14.3333333 L9.33333333,14.3333333 L9.33333333,17 Z M9.33333333,22.3333333 L28,22.3333333 L28,19.6666667 L9.33333333,19.6666667 L9.33333333,22.3333333 Z M9.33333333,9 L9.33333333,11.6666667 L28,11.6666667 L28,9 L9.33333333,9 Z" id="Shape"></path>
        </g>
    </g>
</svg>